# xmcd
#
# Track frame offsets: 
#        150
#        17075
#        32787
#        47140
#        64590
#        82125
#        92872
#        107235
#        123795
#        139640
#        154984
#        170461
#        184885
#        197446
#        214879
#        226828
#        243338
#
# Disc length: 3648 seconds
#
# Revision: 14
# Processed by: cddbd v1.5.2PL0 Copyright (c) Steve Scherf et al.
# Submitted via: ExactAudioCopy v0.99pb5
#
DISCID=e70e3e11
DTITLE=André Rieu - La vie est belle
DYEAR=2000
DGENRE=Classical
TTITLE0=La vie est belle
TTITLE1=You are my hearts delight
TTITLE2=Juliska from Budapest
TTITLE3=Danube love
TTITLE4=Olé guapa
TTITLE5=Kalinka
TTITLE6=Ramona
TTITLE7=Heia in the mountains
TTITLE8=Stenka rasin
TTITLE9=I want to dream of you, my darling
TTITLE10=Lara's theme
TTITLE11=Snowwhite
TTITLE12=Amazing grace
TTITLE13=Poliushko polie
TTITLE14=Glenn Miller melody
TTITLE15=The André Sisters
TTITLE16=Bolero
EXTD=YEAR: 2000
EXTT0=
EXTT1=
EXTT2=
EXTT3=
EXTT4=
EXTT5=
EXTT6=
EXTT7=
EXTT8=
EXTT9=
EXTT10=
EXTT11=
EXTT12=
EXTT13=
EXTT14=
EXTT15=
EXTT16=
PLAYORDER=
